<?xml version="1.0" encoding="UTF-8" standalone="no"?>
<!-- Generator: Adobe Illustrator 27.8.0, SVG Export Plug-In . SVG Version: 6.00 Build 0)  -->

<svg
   version="1.1"
   id="Ebene_1"
   x="0px"
   y="0px"
   viewBox="0 0 921 284"
   style="enable-background:new 0 0 921 284;"
   xml:space="preserve"
   xmlns="http://www.w3.org/2000/svg"
   xmlns:svg="http://www.w3.org/2000/svg"><defs
   id="defs17" />
<style
   type="text/css"
   id="style1">
	.st0{fill:#22286A;}
	.st1{fill:#C8B0E5;}
</style>
<g
   id="g4"
   style="fill:#ececec">
	<polygon
   class="st0"
   points="100.3,170.8 100.4,126.5 132.5,126.5 132.5,131.8 106.8,131.8 106.8,144.9 128.5,144.9 128.5,150.1    106.8,150.1 106.7,170.8  "
   id="polygon1"
   style="fill:#ececec" />
	<path
   class="st0"
   d="M166.1,171.6c-6.5,0-12.4-2.4-16.7-6.7c-4.3-4.2-6.6-10-6.6-16.2c0-12.8,10.3-22.8,23.4-22.8   c6.5,0,12.4,2.4,16.8,6.7c4.3,4.3,6.6,10,6.6,16.2C189.5,161.8,179.4,171.6,166.1,171.6L166.1,171.6z M166.2,131.5   c-9.3,0-16.6,7.6-16.7,17.2c0,4.6,1.7,8.9,4.7,12.1c3.1,3.3,7.3,5.1,11.9,5.1c9.3,0,16.5-7.6,16.5-17.2   C182.8,139.1,175.5,131.5,166.2,131.5L166.2,131.5z"
   id="path1"
   style="fill:#ececec" />
	<path
   class="st0"
   d="M234.8,171l-8.1-11.3l-0.6,0.1c-1.3,0.2-2.7,0.3-3.9,0.3l-11.4,0l0,10.9l-6.4,0l0.1-44.3l18.6,0   c6,0,11,1.7,14.5,4.9c3.1,3,4.9,7.2,4.9,11.8c0,6.1-3.4,11.5-9,14.1l-1,0.5l9.7,13L234.8,171z M210.8,154.8l12.5,0   c6.9,0,12.2-4.9,12.2-11.4c0-3.1-1.2-6.1-3.4-8.2c-2.2-2.2-5.3-3.4-8.7-3.4l-12.6,0L210.8,154.8z"
   id="path2"
   style="fill:#ececec" />
	<path
   class="st0"
   d="M296.6,171.1l0.1-34.7l-1.7,3.1c0,0-1.4,2.6-4.4,6.8L280,161.5l-10.7-15.3c-2.8-4-4.3-6.7-4.3-6.7l-1.7-3   l-0.1,34.6l-6.4,0l0.1-44.3l5.8,0l6.1,8.6c3.2,4.5,10.4,14.7,10.4,14.8l0.7,1.1l0.8-1.1c0,0,7.2-10.2,10.4-14.7l6.1-8.6l5.8,0   l-0.1,44.3L296.6,171.1z"
   id="path3"
   style="fill:#ececec" />
	<path
   class="st0"
   d="M335.4,171.9c-9.3,0-14.3-3.3-17.3-5.9l2.4-4.6c3,2.3,7.7,4.9,15,4.9c5.4,0,10.9-2.6,10.9-7.5   c0-5.1-5.6-6.4-10.2-7.5c-8.7-2.1-16.5-4.6-16.5-13c0-8.3,8.2-12.1,15.8-12.1c5.7,0,10.6,1.4,15.2,4.4l-2.4,4.7   c-4-2.3-8.1-3.5-12.8-3.5c-3.2,0-9.3,1.3-9.3,6.4c0,4.6,5.3,5.9,10.4,7.2c8.6,2,16.5,5.1,16.5,13.4   C353.1,167.8,344.2,171.9,335.4,171.9L335.4,171.9z"
   id="path4"
   style="fill:#ececec" />
</g>
<g
   id="g9"
   style="fill:#ececec">
	<path
   class="st0"
   d="M558.9,171.7l-7.2-26.1c-1-3.9-1.8-9-1.8-9l-1.8,0c0,0.1-0.8,5.1-1.8,9l-7.3,26.1l-7.5,0l-14-44.5l6.3,0   l8.5,27.2c1.1,3.6,2.1,7.6,2.1,7.6l1.8,0l1.9-7.7l7.1-27.1l7.4,0l7,27.2c1,3.6,1.8,7.6,1.8,7.7l1.8,0c0,0,1.1-4,2.2-7.7l8.6-27.2   l6.3,0l-14.2,44.4L558.9,171.7z"
   id="path5"
   style="fill:#ececec" />
	
		<rect
   x="574.4"
   y="146.2"
   transform="matrix(1.584462e-03 -1 1 1.584462e-03 446.1455 745.6984)"
   class="st0"
   width="44.3"
   height="6.4"
   id="rect5"
   style="fill:#ececec" />
	<path
   class="st0"
   d="M613.7,171.6l0-5l22.8-27.5c2.6-3.2,4.3-4.8,4.3-4.8l1.7-1.6l-27.6,0l0-5.3l34.5,0.1l0,5.1l-22,26.6   c-2.8,3.4-5,5.7-5,5.7l-1.5,1.5l29.1,0l0,5.3L613.7,171.6z"
   id="path6"
   style="fill:#ececec" />
	<path
   class="st0"
   d="M701,171.7l-3.6-8l-26.5,0l-3.6,8l-6.4,0l20-44.3l6.6,0l19.9,44.3L701,171.7z M683.3,135   c0,0.1-2.5,6.2-4.6,10.7l-5.9,13.3l22.5,0l-5.8-13.3c-2-4.5-4.5-10.7-4.5-10.7l-0.9-2.1L683.3,135z"
   id="path7"
   style="fill:#ececec" />
	<path
   class="st0"
   d="M750.9,171.8l-8.1-11.3l-0.6,0.1c-1.3,0.2-2.7,0.3-3.9,0.3l-11.4,0l0,10.9l-6.4,0l0.1-44.3l18.6,0   c6,0,11,1.7,14.5,4.9c3.1,3,4.9,7.2,4.9,11.8c0,6.1-3.4,11.5-9,14.1l-1,0.5l9.7,13L750.9,171.8z M726.9,155.6l12.5,0   c6.9,0,12.2-4.9,12.2-11.4c0-3.1-1.2-6.1-3.4-8.2c-2.2-2.2-5.3-3.4-8.7-3.4l-12.6,0L726.9,155.6z"
   id="path8"
   style="fill:#ececec" />
	<path
   class="st0"
   d="M772.9,171.9l0.1-44.3l17.2,0c13.7,0,23.6,9.4,23.5,22.2c0,12.8-9.9,22.1-23.6,22.1L772.9,171.9z M779.3,166.6   l10.4,0c10.1,0,17.2-6.9,17.2-16.8c0-9.9-7-16.9-17.1-16.9l-10.4,0L779.3,166.6z"
   id="path9"
   style="fill:#ececec" />
</g>
<g
   id="g14">
	<g
   id="g10">
		<path
   class="st1"
   d="M472.6,205.9c-8.5,5.6-17.8,9.9-26.8,14.8c2.6-0.1,5.3-0.4,7.9-0.9c13-2.7,25.8-9,34.2-19.6    c3.3-4.2,6-9.7,5.3-15.1C489.7,194.1,480.4,200.7,472.6,205.9z"
   id="path10" />
	</g>
	<g
   id="g11">
		<path
   class="st1"
   d="M385.4,156c0-4.9,4-8.8,8.8-8.8c-4.9,0-8.8-4-8.8-8.8c0,4.9-4,8.8-8.8,8.8C381.5,147.2,385.4,151.2,385.4,156    z"
   id="path11" />
	</g>
	<g
   id="g12">
		<path
   class="st1"
   d="M471.4,83c0-5.5,4.4-9.9,9.9-9.9c-5.5,0-9.9-4.4-9.9-9.9c0,5.5-4.4,9.9-9.9,9.9C467,73,471.4,77.5,471.4,83z"
   id="path12" />
	</g>
	<g
   id="g13">
		<path
   class="st1"
   d="M499,157.8c-0.1,0.2-0.2,0.5-0.2,0.7c-0.2,0.5-0.3,1-0.5,1.4c-0.1,0.3-0.2,0.6-0.3,0.9    c-0.2,0.4-0.3,0.9-0.5,1.3c-0.1,0.3-0.3,0.6-0.4,0.9c-0.2,0.4-0.4,0.8-0.6,1.2c-0.2,0.3-0.3,0.6-0.5,0.9c-0.2,0.4-0.4,0.8-0.7,1.1    c-0.2,0.3-0.4,0.6-0.6,0.9c-0.2,0.4-0.5,0.7-0.7,1.1c-0.2,0.3-0.4,0.6-0.6,0.9c-0.3,0.4-0.5,0.7-0.8,1.1c-0.2,0.3-0.4,0.6-0.7,0.9    c-0.3,0.3-0.6,0.7-0.8,1c-0.2,0.3-0.5,0.6-0.7,0.8c-0.3,0.3-0.6,0.7-0.9,1c-0.2,0.3-0.5,0.5-0.7,0.8c-0.3,0.3-0.6,0.7-1,1    c-0.3,0.3-0.5,0.5-0.8,0.8c-0.3,0.3-0.7,0.7-1,1c-0.3,0.2-0.5,0.5-0.8,0.7c-0.4,0.3-0.7,0.7-1.1,1c-0.3,0.2-0.5,0.5-0.8,0.7    c-0.4,0.3-0.8,0.7-1.2,1c-0.2,0.2-0.5,0.4-0.7,0.6c-0.5,0.4-1.1,0.8-1.6,1.2c-0.1,0.1-0.3,0.2-0.4,0.3c-0.7,0.5-1.4,1-2.1,1.5    c-0.2,0.1-0.4,0.3-0.6,0.4c-0.5,0.4-1,0.7-1.5,1c-0.3,0.2-0.5,0.4-0.8,0.5c-0.4,0.3-0.9,0.6-1.4,0.9c-0.3,0.2-0.6,0.4-0.9,0.6    c-0.3,0.2-0.5,0.3-0.8,0.5v-48.8c3.6-0.4,7.1-0.4,10.4-0.2c2.7,0.3,5.4,0.8,8,1.8c-4.9-2.7-10.6-4-16-4.5    c-0.8-0.1-1.6-0.1-2.3-0.1v-19.2c0,0,0.1,0,0.1,0c11-0.2,18.2-1.9,18.6-5c-0.1-1.1-0.9-1.9-1.7-2.5c-9.3-6.7-38.8-14.1-47.5-15.4    c7.6-1.9,12.9-1.9,19.2-0.8l-11.5-34.9c-0.4-1.3-2.1-1.5-2.9-0.4l-25.3,33.8c-16.9-1-29,0.7-29.6,4.8c-0.6,3.8,8.9,8.6,23.6,12.7    h-2c-3.4,0-6.2,2.8-6.2,6.2v41.8c-3.8,2.8-7.4,5.8-10.6,9c-7,7.3-13.8,17.1-13.2,28.1c0.3,8.9,6.5,16.7,14.2,20.1    c14.3,6.4,31.2,3.2,45.2-1.4c1.8-0.6,3.7-1.3,5.5-2.1l0,0c0.1,0,0.2-0.1,0.3-0.1c0.3-0.1,0.7-0.3,1-0.4c0.6-0.2,1.2-0.5,1.8-0.8    c0.4-0.2,0.7-0.3,1.1-0.5c0.6-0.3,1.1-0.5,1.7-0.8c0.4-0.2,0.8-0.4,1.1-0.5c0.5-0.3,1.1-0.5,1.6-0.8c0.4-0.2,0.7-0.4,1.1-0.6    c0.5-0.3,1.1-0.6,1.6-0.9c0.4-0.2,0.7-0.4,1.1-0.6c0.6-0.3,1.2-0.6,1.7-1c0.3-0.2,0.6-0.3,0.9-0.5c0.7-0.4,1.5-0.9,2.2-1.3    c0.1-0.1,0.3-0.2,0.4-0.3c0.9-0.5,1.7-1.1,2.6-1.6c0.2-0.2,0.5-0.3,0.7-0.5c0.6-0.4,1.2-0.8,1.8-1.2c0.3-0.2,0.6-0.4,0.9-0.7    c0.5-0.4,1-0.7,1.6-1.1c0.3-0.2,0.7-0.5,1-0.7c0.5-0.4,1-0.7,1.5-1.1c0.3-0.3,0.7-0.5,1-0.8c0.5-0.4,1-0.8,1.4-1.2    c0.3-0.3,0.6-0.5,1-0.8c0.5-0.4,1-0.8,1.4-1.2c0.3-0.3,0.6-0.5,0.9-0.8c0.5-0.5,1-0.9,1.5-1.4c0.2-0.2,0.5-0.5,0.7-0.7    c0.7-0.7,1.5-1.4,2.2-2.2c7.4-7.7,14.1-15.2,14.4-30.9C499.4,156.4,499.2,157.1,499,157.8z M453.7,197c-0.4,0.2-0.9,0.3-1.3,0.5    c-0.3,0.1-0.6,0.2-0.9,0.4c-0.5,0.2-0.9,0.3-1.4,0.5c-0.3,0.1-0.6,0.2-0.9,0.3c-0.5,0.2-1.1,0.4-1.6,0.5c-0.2,0.1-0.4,0.1-0.6,0.2    c-0.7,0.2-1.5,0.5-2.2,0.7c-0.1,0-0.2,0.1-0.4,0.1c-2.1,0.6-4.1,1.1-6,1.6c-10.7,2.4-28.5,4.5-37.3-3c-4.2-4.2-2-11.1,0.6-16.1    c1.2-2.2,2.7-4.4,4.3-6.5v14.5c0,3.4,2.8,6.2,6.2,6.2h41.6C453.8,196.9,453.8,197,453.7,197z M455.5,174.4h-33.7    c-1.8,0-3.2-1.4-3.2-3.2c0-1.8,1.4-3.2,3.2-3.2h33.7c1.8,0,3.2,1.4,3.2,3.2C458.6,173,457.2,174.4,455.5,174.4z M455.5,154.2    h-33.7c-1.8,0-3.2-1.4-3.2-3.2s1.4-3.2,3.2-3.2h33.7c1.8,0,3.2,1.4,3.2,3.2S457.2,154.2,455.5,154.2z M455.5,134.7h-33.7    c-1.8,0-3.2-1.4-3.2-3.2c0-1.8,1.4-3.2,3.2-3.2h33.7c1.8,0,3.2,1.4,3.2,3.2C458.6,133.3,457.2,134.7,455.5,134.7z"
   id="path13" />
	</g>
</g>
<path
   class="st0"
   d="M465.6,109.2h-52.9c-3.5,0-6.4,2.8-6.4,6.4v75.1c0,3.5,2.8,6.4,6.4,6.4h52.9c3.5,0,6.4-2.8,6.4-6.4v-75.1  C472,112.1,469.2,109.2,465.6,109.2z M454.9,174h-31.7c-1.6,0-3-1.3-3-3c0-1.6,1.3-3,3-3h31.7c1.6,0,3,1.3,3,3  C457.9,172.6,456.6,174,454.9,174z M454.9,154h-31.7c-1.6,0-3-1.3-3-3c0-1.6,1.3-3,3-3h31.7c1.6,0,3,1.3,3,3  C457.9,152.6,456.6,154,454.9,154z M454.9,134h-31.7c-1.6,0-3-1.3-3-3c0-1.6,1.3-3,3-3h31.7c1.6,0,3,1.3,3,3  C457.9,132.6,456.6,134,454.9,134z"
   id="path14" />
<g
   id="g17">
	<g
   id="g15">
		<path
   class="st1"
   d="M473.6,187"
   id="path15" />
	</g>
	<g
   id="g16">
		<path
   class="st1"
   d="M478,193c-9.7,8.2-20.7,14.3-32.4,19l-4.3-10.7c10.1-2.7,21.9-7.6,32.3-14.3L478,193c2.2-1.9,4.4-3.9,6.5-6"
   id="path16" />
	</g>
</g>
</svg>
